<?xml version="1.0" encoding="UTF-8"?>
<svg version="1.1" xmlns="http://www.w3.org/2000/svg" width="800" height="300">
<path d="M0 0 C5.64436377 4.25086748 7.1214692 10.47776137 8.06640625 17.1171875 C10.74652164 47.78473734 -5.72374677 79.97950675 -19.93359375 106.1171875 C-20.26359375 106.4471875 -20.59359375 106.7771875 -20.93359375 107.1171875 C-21.45978089 112.81958771 -20.76852049 117.72709021 -18.93359375 123.1171875 C-13.19696501 123.5761178 -10.42982713 122.69373678 -5.93359375 119.1171875 C-5.39089844 118.74207031 -4.84820312 118.36695313 -4.2890625 117.98046875 C-2.12168257 115.0011021 -2.53117518 111.66889299 -2.49609375 108.1171875 C-2.11288354 96.91155137 0.72281628 87.87182285 8.50390625 79.4921875 C17.15518996 71.47392455 23.80450659 69.50857737 35.55859375 69.765625 C41.51527677 70.36261996 44.35610084 72.27185798 48.44140625 76.6796875 C52.45731828 82.70355555 51.56075263 90.16725903 51.06640625 97.1171875 C49.41472959 104.21493313 43.87961204 109.09531031 38.06640625 113.1171875 C32.27605994 116.05324243 26.22197325 118.09268991 20.06640625 120.1171875 C24.49302986 123.5478208 28.3212638 125.3723004 34.06640625 125.1171875 C40.99482926 123.85238653 47.19902845 120.9598301 53.06640625 117.1171875 C53.94554687 116.62863281 54.8246875 116.14007813 55.73046875 115.63671875 C59.37454764 111.70623232 59.18673251 107.436172 59.62890625 102.2421875 C62.16420785 78.70825502 62.16420785 78.70825502 69.06640625 71.1171875 C71.81146088 69.74466019 74.06968037 69.98489495 77.12890625 69.9921875 C78.75505859 69.98832031 78.75505859 69.98832031 80.4140625 69.984375 C83.06640625 70.1171875 83.06640625 70.1171875 84.06640625 71.1171875 C84.01357584 78.15683967 82.54542262 84.82985524 80.6875 91.5859375 C79.94725548 94.16839388 79.94725548 94.16839388 80.06640625 97.1171875 C80.68515625 95.97443359 80.68515625 95.97443359 81.31640625 94.80859375 C87.28939442 84.12921088 93.97773985 74.14674297 106.06640625 70.1171875 C115.52489 69.23632107 115.52489 69.23632107 119.69140625 71.6171875 C123.2746929 78.13225413 121.86368574 84.28880817 120.546875 91.26171875 C119.97931045 94.63480564 119.91152373 97.70977204 120.06640625 101.1171875 C123.00732212 100.93303318 123.00732212 100.93303318 126.06640625 100.1171875 C127.71587189 97.52152774 128.42787712 94.99965523 128.99609375 92 C129.15207031 91.22785156 129.30804688 90.45570313 129.46875 89.66015625 C129.78209791 88.05716157 130.08946222 86.45298483 130.390625 84.84765625 C131.68032208 78.54596563 133.49935843 73.82855272 139.06640625 70.1171875 C141.94921875 69.88671875 141.94921875 69.88671875 145.19140625 69.9296875 C146.80402344 69.93935547 146.80402344 69.93935547 148.44921875 69.94921875 C151.06640625 70.1171875 151.06640625 70.1171875 152.06640625 71.1171875 C151.99697863 79.89978183 149.90027558 88.5706644 148.06640625 97.1171875 C148.40671875 96.43914062 148.74703125 95.76109375 149.09765625 95.0625 C154.46368647 84.75858028 160.62162578 74.29232201 172.06640625 70.1171875 C176.15187576 69.52357227 180.00304493 69.31935856 184.06640625 70.1171875 C186.58341908 72.01733942 187.0448897 73.05263784 188.06640625 76.1171875 C188.44011482 82.96851122 187.32174472 89.39215998 186.06640625 96.1171875 C186.65035156 94.99183594 186.65035156 94.99183594 187.24609375 93.84375 C192.2924981 84.61138813 198.87881611 74.96727697 208.921875 70.671875 C213.30487538 69.53820277 217.60392816 69.38539849 222.06640625 70.1171875 C224.72204427 72.0140718 225.63883152 73.26203805 227.06640625 76.1171875 C227.57832099 84.99342346 225.64338644 93.25145033 223.84375 101.90429688 C222.35608947 109.41485734 221.75262546 116.46355096 222.06640625 124.1171875 C227.34144288 123.14830322 230.87490308 121.49603233 234.578125 117.5546875 C236.80483448 113.90779323 237.27442543 110.12877139 237.94775391 105.95166016 C240.00281619 93.73261488 246.81200522 83.88718964 256.43359375 76.234375 C262.75393055 71.82929178 268.14140799 69.83300386 275.94140625 69.9921875 C277.09382813 70.01023437 278.24625 70.02828125 279.43359375 70.046875 C280.30242187 70.07007813 281.17125 70.09328125 282.06640625 70.1171875 C282.28425781 70.76558594 282.50210937 71.41398437 282.7265625 72.08203125 C283.16871094 72.75363281 283.61085938 73.42523438 284.06640625 74.1171875 C286.61881128 74.70967075 286.61881128 74.70967075 289.50390625 74.6796875 C294.56958206 74.79435659 294.56958206 74.79435659 296.91796875 76.3203125 C301.25511026 83.10631622 295.78452881 99.1604579 294.43920898 106.62573242 C293.51104439 111.87626133 292.83356109 116.78428222 293.06640625 122.1171875 C295.92840603 122.96629738 297.46297617 123.38900285 300.234375 122.140625 C305.96480512 117.46317527 306.92021274 113.67674045 307.671875 106.44921875 C309.01556833 95.10099688 315.07655256 85.56785632 323.453125 77.9453125 C329.83706858 73.13422459 337.93324952 69.1171875 346.06640625 69.1171875 C346.08058594 68.4571875 346.09476563 67.7971875 346.109375 67.1171875 C347.11076463 46.33158654 351.55345917 16.46768979 367.67578125 1.63671875 C372.54727596 -1.76172875 378.40734119 -1.85586441 384.06640625 -0.8828125 C388.0328973 0.92815109 389.86011066 3.72593724 391.87890625 7.5546875 C401.93900207 37.73497497 382.44552162 73.51597913 369.30371094 99.83349609 C366.19956699 105.98402676 366.19956699 105.98402676 365.06640625 107.1171875 C364.54021911 112.81958771 365.23147951 117.72709021 367.06640625 123.1171875 C372.80303499 123.5761178 375.57017287 122.69373678 380.06640625 119.1171875 C380.88044922 118.55451172 380.88044922 118.55451172 381.7109375 117.98046875 C383.87831743 115.0011021 383.46882482 111.66889299 383.50390625 108.1171875 C383.88711646 96.91155137 386.72281628 87.87182285 394.50390625 79.4921875 C403.15518996 71.47392455 409.80450659 69.50857737 421.55859375 69.765625 C427.51527677 70.36261996 430.35610084 72.27185798 434.44140625 76.6796875 C438.45731828 82.70355555 437.56075263 90.16725903 437.06640625 97.1171875 C435.41472959 104.21493313 429.87961204 109.09531031 424.06640625 113.1171875 C418.27605994 116.05324243 412.22197325 118.09268991 406.06640625 120.1171875 C410.49302986 123.5478208 414.3212638 125.3723004 420.06640625 125.1171875 C432.98371738 122.75910001 442.01161834 115.17197541 451.06640625 106.1171875 C453.56640625 106.2421875 453.56640625 106.2421875 456.06640625 107.1171875 C458.54190598 110.91463777 458.41805124 114.08974042 457.83984375 118.46484375 C455.30049006 127.17303139 446.81466606 131.94615588 439.5078125 136.390625 C432.04742964 140.13351856 425.46930258 141.65483635 417.12890625 141.5546875 C415.812854 141.54441528 415.812854 141.54441528 414.47021484 141.53393555 C406.25881684 141.330139 399.95483355 139.80053793 393.69140625 134.3046875 C392.82515625 133.5828125 391.95890625 132.8609375 391.06640625 132.1171875 C387.70005524 132.43256865 385.70607469 133.96743623 383.12890625 136.0546875 C377.31548273 140.75859082 372.3802944 141.57452437 365.01171875 141.4296875 C360.16904809 140.91587629 356.925191 139.39211808 353.7578125 135.515625 C352.62890625 133.8671875 352.62890625 133.8671875 351.06640625 131.1171875 C348.14219406 132.45103867 345.94041562 133.95899716 343.56640625 136.1171875 C338.70630955 140.53545723 335.34268086 141.42580751 328.69140625 141.4921875 C327.40492188 141.52054688 326.1184375 141.54890625 324.79296875 141.578125 C319.33126526 140.90256838 315.69549034 138.14950315 312.06640625 134.1171875 C308.76629095 135.25160213 306.28307679 136.69407226 303.50390625 138.7421875 C298.29532442 142.05673957 293.05126481 142.14339782 287.06640625 141.1171875 C282.9391633 139.36471866 280.6640476 137.28648579 278.62890625 133.3046875 C278.44328125 132.5828125 278.25765625 131.8609375 278.06640625 131.1171875 C277.55851562 131.58769531 277.050625 132.05820313 276.52734375 132.54296875 C269.18625724 139.18294026 264.27681141 141.71369207 254.19921875 141.47265625 C247.8879258 140.75653697 244.4171113 137.57081246 240.06640625 133.1171875 C239.30714844 133.61089844 238.54789063 134.10460937 237.765625 134.61328125 C236.77175781 135.25394531 235.77789063 135.89460937 234.75390625 136.5546875 C233.76777344 137.19277344 232.78164063 137.83085937 231.765625 138.48828125 C227.31064989 141.17673946 223.83009449 141.30661357 218.69140625 141.3671875 C217.38429688 141.39296875 216.0771875 141.41875 214.73046875 141.4453125 C209.59473539 140.98539608 207.16997267 139.37402703 203.81640625 135.5546875 C199.30026532 126.68369639 201.50048781 116.94085614 203.00390625 107.4921875 C203.19919922 106.20183594 203.39449219 104.91148437 203.59570312 103.58203125 C204.07506694 100.42524518 204.56552224 97.27061786 205.06640625 94.1171875 C200.90576965 97.28179032 198.43762118 100.30904209 196.06640625 104.9296875 C195.55158691 105.91340332 195.55158691 105.91340332 195.02636719 106.91699219 C191.56302532 113.74919153 189.31190883 120.80718809 187.06640625 128.1171875 C186.37551324 130.22714492 185.66887556 132.33205982 184.94140625 134.4296875 C184.65007812 135.29207031 184.35875 136.15445313 184.05859375 137.04296875 C183.06640625 139.1171875 183.06640625 139.1171875 180.06640625 141.1171875 C177.00062568 141.6625979 174.13348305 141.65527115 171.06640625 141.1171875 C167.78465307 138.58750276 166.37396848 137.03987419 165.06640625 133.1171875 C164.83322897 129.93461161 164.8766346 126.74493894 164.87890625 123.5546875 C164.87826172 122.62825439 164.87761719 121.70182129 164.87695312 120.74731445 C164.94420816 111.78023152 165.85260882 102.99308122 167.06640625 94.1171875 C165.10746264 94.23025447 165.10746264 94.23025447 163.06640625 95.1171875 C161.91089563 97.39182537 161.91089563 97.39182537 161.06640625 100.1171875 C160.14042738 101.91483564 159.20198544 103.70609636 158.25390625 105.4921875 C153.8473813 114.21925642 151.08117405 123.3962744 148.50390625 132.8046875 C146.56282534 139.14484853 146.56282534 139.14484853 143.06640625 141.1171875 C139.61047124 141.71144678 136.51825817 141.7557801 133.06640625 141.1171875 C128.86365852 137.9651267 128.21830612 133.65615428 127.37109375 128.69921875 C126.94978123 125.1288652 126.93339126 121.70859211 127.06640625 118.1171875 C125.58140625 118.6121875 125.58140625 118.6121875 124.06640625 119.1171875 C121.63278153 119.28960458 119.19320029 119.38384518 116.75390625 119.4296875 C115.45839844 119.46707031 114.16289062 119.50445312 112.828125 119.54296875 C108.40168784 119.04194938 106.41292797 118.02909601 103.06640625 115.1171875 C100.00183267 110.58136162 99.67745268 106.57295902 99.87890625 101.2421875 C99.89244141 100.55382812 99.90597656 99.86546875 99.91992188 99.15625 C99.95492255 97.47621749 100.00871671 95.796594 100.06640625 94.1171875 C95.46016383 97.57350274 92.63288601 100.82102461 90.12890625 106.0546875 C89.79536133 106.72983398 89.46181641 107.40498047 89.11816406 108.10058594 C85.82832247 115.06309837 83.59225102 122.35497909 81.50024414 129.75366211 C78.93495778 138.5596451 78.93495778 138.5596451 75.06640625 141.1171875 C71.66037709 141.90865261 68.49340884 141.78323285 65.06640625 141.1171875 C62.44140625 138.8671875 62.44140625 138.8671875 61.06640625 136.1171875 C61.06640625 134.7971875 61.06640625 133.4771875 61.06640625 132.1171875 C59.9578125 132.68308594 58.84921875 133.24898437 57.70703125 133.83203125 C56.24359722 134.57312925 54.78004958 135.31400294 53.31640625 136.0546875 C52.58679688 136.42787109 51.8571875 136.80105469 51.10546875 137.18554688 C50.39648438 137.54326172 49.6875 137.90097656 48.95703125 138.26953125 C48.30766602 138.59945068 47.65830078 138.92937012 46.98925781 139.26928711 C38.23320616 143.13035458 23.99810844 142.77947606 15.19140625 139.4296875 C12.34721386 138.03763559 10.06625862 136.38850404 7.69140625 134.3046875 C6.82515625 133.5828125 5.95890625 132.8609375 5.06640625 132.1171875 C1.70005524 132.43256865 -0.29392531 133.96743623 -2.87109375 136.0546875 C-8.68451727 140.75859082 -13.6197056 141.57452437 -20.98828125 141.4296875 C-25.83095191 140.91587629 -29.074809 139.39211808 -32.2421875 135.515625 C-33.37109375 133.8671875 -33.37109375 133.8671875 -34.93359375 131.1171875 C-37.85780594 132.45103867 -40.05958438 133.95899716 -42.43359375 136.1171875 C-47.29369045 140.53545723 -50.65731914 141.42580751 -57.30859375 141.4921875 C-58.59507812 141.52054688 -59.8815625 141.54890625 -61.20703125 141.578125 C-67.75935542 140.76766981 -71.66622319 136.83288591 -75.67578125 131.91015625 C-78.75285282 127.52389584 -79.18303668 123.35548903 -78.93359375 118.1171875 C-79.92359375 118.6121875 -79.92359375 118.6121875 -80.93359375 119.1171875 C-83.34609067 119.29321897 -85.7651027 119.38463718 -88.18359375 119.4296875 C-89.488125 119.46707031 -90.79265625 119.50445312 -92.13671875 119.54296875 C-96.58534949 119.04409966 -98.57333289 118.04527608 -101.93359375 115.1171875 C-104.99816733 110.58136162 -105.32254732 106.57295902 -105.12109375 101.2421875 C-105.10079102 100.20964844 -105.10079102 100.20964844 -105.08007812 99.15625 C-105.04507745 97.47621749 -104.99128329 95.796594 -104.93359375 94.1171875 C-109.53983617 97.57350274 -112.36711399 100.82102461 -114.87109375 106.0546875 C-115.20463867 106.72983398 -115.53818359 107.40498047 -115.88183594 108.10058594 C-119.17167753 115.06309837 -121.40774898 122.35497909 -123.49975586 129.75366211 C-126.06504222 138.5596451 -126.06504222 138.5596451 -129.93359375 141.1171875 C-133.34560664 141.91004306 -136.49703159 141.7529515 -139.93359375 141.1171875 C-144.74379331 137.50953783 -145.08967506 131.75424625 -145.93359375 126.1171875 C-146.21499634 122.61124232 -146.26730226 119.13336897 -146.24609375 115.6171875 C-146.24262939 114.66811523 -146.23916504 113.71904297 -146.2355957 112.74121094 C-146.04150697 99.91205265 -145.48736442 80.67095817 -135.93359375 71.1171875 C-133.18853912 69.74466019 -130.93031963 69.98489495 -127.87109375 69.9921875 C-126.78699219 69.98960937 -125.70289063 69.98703125 -124.5859375 69.984375 C-121.93359375 70.1171875 -121.93359375 70.1171875 -120.93359375 71.1171875 C-120.98642416 78.15683967 -122.45457738 84.82985524 -124.3125 91.5859375 C-125.05274452 94.16839388 -125.05274452 94.16839388 -124.93359375 97.1171875 C-124.52109375 96.35535156 -124.10859375 95.59351563 -123.68359375 94.80859375 C-117.71060558 84.12921088 -111.02226015 74.14674297 -98.93359375 70.1171875 C-89.47511 69.23632107 -89.47511 69.23632107 -85.30859375 71.6171875 C-81.7253071 78.13225413 -83.13631426 84.28880817 -84.453125 91.26171875 C-85.02068955 94.63480564 -85.08847627 97.70977204 -84.93359375 101.1171875 C-81.8106874 100.63140207 -78.93779016 100.1185863 -75.93359375 99.1171875 C-75.2488598 96.78909207 -74.58506224 94.45480973 -73.93359375 92.1171875 C-66.97875844 80.36591404 -58.40484227 73.76728971 -45.5 69.74609375 C-42.93359375 69.1171875 -42.93359375 69.1171875 -39.93359375 69.1171875 C-39.91941406 68.4571875 -39.90523438 67.7971875 -39.890625 67.1171875 C-38.88923537 46.33158654 -34.44654083 16.46768979 -18.32421875 1.63671875 C-13.24484014 -1.90675252 -5.64316273 -2.5764743 0 0 Z M-10.93359375 15.1171875 C-13.76581382 20.97205071 -15.78918066 26.54121016 -16.99609375 32.9296875 C-17.15819336 33.76282471 -17.32029297 34.59596191 -17.48730469 35.4543457 C-20.23461694 50.38779594 -22.25735613 65.91654379 -21.93359375 81.1171875 C-11.68162245 65.73923056 -3.74343069 39.81335611 -6.33203125 21.26171875 C-6.77486474 19.19195351 -7.33825448 17.148345 -7.93359375 15.1171875 C-8.92359375 15.1171875 -9.91359375 15.1171875 -10.93359375 15.1171875 Z M375.06640625 15.1171875 C372.23418618 20.97205071 370.21081934 26.54121016 369.00390625 32.9296875 C368.84180664 33.76282471 368.67970703 34.59596191 368.51269531 35.4543457 C365.76538306 50.38779594 363.74264387 65.91654379 364.06640625 81.1171875 C374.31837755 65.73923056 382.25656931 39.81335611 379.66796875 21.26171875 C379.22513526 19.19195351 378.66174552 17.148345 378.06640625 15.1171875 C377.07640625 15.1171875 376.08640625 15.1171875 375.06640625 15.1171875 Z M266.265625 90.77734375 C259.12170893 98.22720911 255.92230189 107.83173864 256.06640625 118.1171875 C256.48943369 121.5661007 256.48943369 121.5661007 258.06640625 124.1171875 C260.29582599 125.85902007 260.29582599 125.85902007 263.06640625 126.1171875 C267.51241977 124.38215783 269.96747794 121.28664469 272.06640625 117.1171875 C273.2102964 113.58330014 273.99054927 109.99988308 274.75390625 106.3671875 C274.96595703 105.42875 275.17800781 104.4903125 275.39648438 103.5234375 C276.73519583 97.40844005 277.58776291 91.35740437 278.06640625 85.1171875 C272.62832939 85.1171875 270.09378628 87.24812782 266.265625 90.77734375 Z M26.00390625 86.1171875 C20.96839256 89.54562235 18.46115267 93.18951523 17.06640625 99.1171875 C16.92034355 101.80960989 16.97328895 104.41678572 17.06640625 107.1171875 C27.35889911 103.51748961 27.35889911 103.51748961 34.50390625 95.6171875 C35.17920936 92.61584034 35.20019606 90.98945502 34.06640625 88.1171875 C31.03519573 85.34579503 29.9637934 84.82416312 26.00390625 86.1171875 Z M412.00390625 86.1171875 C406.96839256 89.54562235 404.46115267 93.18951523 403.06640625 99.1171875 C402.92034355 101.80960989 402.97328895 104.41678572 403.06640625 107.1171875 C413.35889911 103.51748961 413.35889911 103.51748961 420.50390625 95.6171875 C421.17920936 92.61584034 421.20019606 90.98945502 420.06640625 88.1171875 C417.03519573 85.34579503 415.9637934 84.82416312 412.00390625 86.1171875 Z M-49.93359375 91.1171875 C-56.36567101 97.82084135 -59.31673945 105.52940744 -59.99609375 114.71484375 C-59.8947322 118.61092844 -59.00791335 120.79827614 -56.93359375 124.1171875 C-54.78031972 126.02853096 -54.78031972 126.02853096 -51.93359375 126.1171875 C-46.3471836 123.82276905 -42.50958526 120.68525276 -39.93359375 115.1171875 C-39.48544209 111.58180867 -39.77171365 108.21621848 -40.12109375 104.6796875 C-40.26199827 102.86861194 -40.40134442 101.0574144 -40.5390625 99.24609375 C-40.6117334 98.38387207 -40.6844043 97.52165039 -40.75927734 96.63330078 C-41.00282249 93.11792783 -40.98715173 89.63965448 -40.93359375 86.1171875 C-44.06006149 86.1171875 -47.56134923 89.32279741 -49.93359375 91.1171875 Z M336.06640625 91.1171875 C329.63432899 97.82084135 326.68326055 105.52940744 326.00390625 114.71484375 C326.1052678 118.61092844 326.99208665 120.79827614 329.06640625 124.1171875 C331.21968028 126.02853096 331.21968028 126.02853096 334.06640625 126.1171875 C339.6528164 123.82276905 343.49041474 120.68525276 346.06640625 115.1171875 C346.51455791 111.58180867 346.22828635 108.21621848 345.87890625 104.6796875 C345.73800173 102.86861194 345.59865558 101.0574144 345.4609375 99.24609375 C345.3882666 98.38387207 345.3155957 97.52165039 345.24072266 96.63330078 C344.99717751 93.11792783 345.01284827 89.63965448 345.06640625 86.1171875 C341.93993851 86.1171875 338.43865077 89.32279741 336.06640625 91.1171875 Z M-126.93359375 100.1171875 C-125.93359375 102.1171875 -125.93359375 102.1171875 -125.93359375 102.1171875 Z M78.06640625 100.1171875 C79.06640625 102.1171875 79.06640625 102.1171875 79.06640625 102.1171875 Z M146.06640625 100.1171875 C147.06640625 102.1171875 147.06640625 102.1171875 147.06640625 102.1171875 Z " fill="#FFFFFF" transform="translate(303.93359375,79.8828125)"/>
<path d="M0 0 C10.13918216 7.65313269 16.38071237 17.55208335 19.18359375 29.96484375 C22.23081418 52.85442975 18.88294459 76.77353338 5.7109375 96.12890625 C-2.99883294 107.41125368 -14.7138877 117.10924452 -28.9375 120.34765625 C-41.00125651 121.78581241 -54.36053298 122.70698206 -65.3125 116.75 C-66.611875 116.09644531 -66.611875 116.09644531 -67.9375 115.4296875 C-79.24722923 109.26992426 -85.50640919 99.6218886 -89.3515625 87.46484375 C-94.72676243 65.58727766 -90.81149413 42.14457959 -80.0625 22.5625 C-71.52086226 8.53642674 -59.37064841 -1.51044765 -43.609375 -6.3984375 C-28.88834029 -9.80957945 -12.67765894 -8.25653794 0 0 Z M-49.44140625 17.96484375 C-61.94511717 29.89427149 -67.57591376 44.23647561 -68.515625 61.4765625 C-68.66220728 73.66732174 -68.23526401 86.43358464 -59.3125 95.75 C-52.58923079 101.15834411 -46.40412814 103.22911682 -37.87890625 102.55859375 C-28.55723697 101.1770671 -20.77569256 96.37909896 -14.90234375 89.0546875 C-6.14702579 76.36270324 -2.9951964 62.5427622 -2.875 47.375 C-2.86484863 46.47217285 -2.85469727 45.5693457 -2.84423828 44.63916016 C-2.98749614 33.6365529 -6.18322298 24.19359892 -13.8359375 16.1484375 C-24.01540965 7.65726805 -39.80276982 9.80907446 -49.44140625 17.96484375 Z " fill="#FFFFFF" transform="translate(130.3125,100.25)"/>
</svg>
